<svg width="32" height="32" xmlns="http://www.w3.org/2000/svg">

 <title/>
 <g>
  <title>background</title>
  <rect fill="none" id="canvas_background" height="402" width="582" y="-1" x="-1"/>
 </g>
 <g>
  <title>Layer 1</title>
  <path fill="#cccccc" id="svg_1" d="m16,29a13,13 0 1 1 13,-13a13,13 0 0 1 -13,13zm0,-24a11,11 0 1 0 11,11a11,11 0 0 0 -11,-11z"/>
  <path fill="#cccccc" id="svg_2" d="m16,23a1,1 0 0 1 -1,-1l0,-12a1,1 0 0 1 2,0l0,12a1,1 0 0 1 -1,1z"/>
  <path fill="#cccccc" id="svg_3" d="m22,17l-12,0a1,1 0 0 1 0,-2l12,0a1,1 0 0 1 0,2z"/>
 </g>
</svg>