<svg width="30" height="30" xmlns="http://www.w3.org/2000/svg">

 <g>
  <title>background</title>
  <rect fill="none" id="canvas_background" height="402" width="582" y="-1" x="-1"/>
 </g>
 <g>
  <title>Layer 1</title>
  <path fill="#cccccc" id="svg_1" d="m15,3c-6.627,0 -12,5.373 -12,12c0,6.627 5.373,12 12,12s12,-5.373 12,-12c0,-6.627 -5.373,-12 -12,-12zm6.707,9.707l-7.56,7.56c-0.188,0.188 -0.442,0.293 -0.707,0.293s-0.52,-0.105 -0.707,-0.293l-3.453,-3.453c-0.391,-0.391 -0.391,-1.023 0,-1.414s1.023,-0.391 1.414,0l2.746,2.746l6.853,-6.853c0.391,-0.391 1.023,-0.391 1.414,0s0.391,1.023 0,1.414z"/>
 </g>
</svg>