<svg width="24" height="24" xmlns="http://www.w3.org/2000/svg">

 <g>
  <title>background</title>
  <rect fill="none" id="canvas_background" height="402" width="582" y="-1" x="-1"/>
 </g>
 <g>
  <title>Layer 1</title>
  <path fill="#333333" id="svg_1" d="m9.6,17a1,1 0 0 1 -0.6,-1.83l1.76,-1.17l-3,0a2,2 0 0 0 -0.9,0.21l-3.41,1.68a1,1 0 0 1 -0.9,-1.78l3.37,-1.69a4.09,4.09 0 0 1 1.79,-0.42l4.67,0a1.5,1.5 0 0 1 0.84,2.74l-3.06,2.09a1,1 0 0 1 -0.56,0.17z" class="cls-1"/>
  <path fill="#333333" id="svg_2" d="0" class="cls-1"/>
  <path fill="#333333" id="svg_3" d="m13.2,2.14l0.94,2.86l3.08,0a0.33,0.33 0 0 1 0.19,0.59l-2.41,1.87l0.9,2.87a0.32,0.32 0 0 1 -0.49,0.36l-2.52,-1.76l-2.48,1.76a0.33,0.33 0 0 1 -0.5,-0.36l0.91,-2.87l-2.45,-1.87a0.33,0.33 0 0 1 0.19,-0.59l3.08,0l0.94,-2.86a0.33,0.33 0 0 1 0.62,0z" class="cls-1"/>
 </g>
</svg>