<svg width="32" height="32" xmlns="http://www.w3.org/2000/svg">

 <title/>
 <g>
  <title>background</title>
  <rect fill="none" id="canvas_background" height="402" width="582" y="-1" x="-1"/>
 </g>
 <g>
  <title>Layer 1</title>
  <path fill="#aad4ff" id="svg_1" d="m23.09,23a1,1 0 0 1 -0.58,-0.18a1,1 0 0 1 -0.23,-1.4a9.35,9.35 0 0 0 1.72,-5.42a9.24,9.24 0 0 0 -1.87,-5.52a1,1 0 0 1 1.6,-1.21a11.2,11.2 0 0 1 0.17,13.29a1,1 0 0 1 -0.81,0.44z" class="cls-1"/>
  <path fill="#aad4ff" id="svg_2" d="m27,26a1,1 0 0 1 -0.44,-0.1a1,1 0 0 1 -0.46,-1.33a19.8,19.8 0 0 0 0,-17.14a1,1 0 1 1 1.8,-0.86a22,22 0 0 1 2.1,9.19a21.89,21.89 0 0 1 -2.15,9.67a1,1 0 0 1 -0.85,0.57z" class="cls-1"/>
  <path fill="#f2d8c2" id="svg_3" d="m20.56,2.11a1,1 0 0 0 -1,0.09l-11.89,8.8l-4.67,0a1,1 0 0 0 -1,1l0,9a1,1 0 0 0 1,1l4.7,0l11.86,7.83a1,1 0 0 0 0.55,0.17a1,1 0 0 0 0.48,-0.12a1,1 0 0 0 0.52,-0.88l0,-26a1,1 0 0 0 -0.55,-0.89z" class="cls-2"/>
 </g>
</svg>